<svg preserveAspectRatio="none" overflow="visible" style="display: block;" width="10.5" height="11.6667" viewBox="0 0 10.5 11.6667" fill="none" xmlns="http://www.w3.org/2000/svg">
<g id="Container">
<path id="Icon" d="M8.75 11.6667C8.26389 11.6667 7.85069 11.4965 7.51042 11.1562C7.17014 10.816 7 10.4028 7 9.91667C7 9.85833 7.01458 9.72222 7.04375 9.50833L2.94583 7.11667C2.79028 7.2625 2.61042 7.37674 2.40625 7.45937C2.20208 7.54201 1.98333 7.58333 1.75 7.58333C1.26389 7.58333 0.850694 7.41319 0.510417 7.07292C0.170139 6.73264 0 6.31944 0 5.83333C0 5.34722 0.170139 4.93403 0.510417 4.59375C0.850694 4.25347 1.26389 4.08333 1.75 4.08333C1.98333 4.08333 2.20208 4.12465 2.40625 4.20729C2.61042 4.28993 2.79028 4.40417 2.94583 4.55L7.04375 2.15833C7.02431 2.09028 7.01215 2.02465 7.00729 1.96146C7.00243 1.89826 7 1.82778 7 1.75C7 1.26389 7.17014 0.850694 7.51042 0.510417C7.85069 0.170139 8.26389 0 8.75 0C9.23611 0 9.64931 0.170139 9.98958 0.510417C10.3299 0.850694 10.5 1.26389 10.5 1.75C10.5 2.23611 10.3299 2.64931 9.98958 2.98958C9.64931 3.32986 9.23611 3.5 8.75 3.5C8.51667 3.5 8.29792 3.45868 8.09375 3.37604C7.88958 3.2934 7.70972 3.17917 7.55417 3.03333L3.45625 5.425C3.47569 5.49306 3.48785 5.55868 3.49271 5.62187C3.49757 5.68507 3.5 5.75556 3.5 5.83333C3.5 5.91111 3.49757 5.9816 3.49271 6.04479C3.48785 6.10799 3.47569 6.17361 3.45625 6.24167L7.55417 8.63333C7.70972 8.4875 7.88958 8.37326 8.09375 8.29062C8.29792 8.20799 8.51667 8.16667 8.75 8.16667C9.23611 8.16667 9.64931 8.33681 9.98958 8.67708C10.3299 9.01736 10.5 9.43056 10.5 9.91667C10.5 10.4028 10.3299 10.816 9.98958 11.1562C9.64931 11.4965 9.23611 11.6667 8.75 11.6667V11.6667M8.75 10.5C8.91528 10.5 9.05382 10.4441 9.16562 10.3323C9.27743 10.2205 9.33333 10.0819 9.33333 9.91667C9.33333 9.75139 9.27743 9.61285 9.16562 9.50104C9.05382 9.38924 8.91528 9.33333 8.75 9.33333C8.58472 9.33333 8.44618 9.38924 8.33438 9.50104C8.22257 9.61285 8.16667 9.75139 8.16667 9.91667C8.16667 10.0819 8.22257 10.2205 8.33438 10.3323C8.44618 10.4441 8.58472 10.5 8.75 10.5V10.5M1.75 6.41667C1.91528 6.41667 2.05382 6.36076 2.16563 6.24896C2.27743 6.13715 2.33333 5.99861 2.33333 5.83333C2.33333 5.66806 2.27743 5.52951 2.16563 5.41771C2.05382 5.3059 1.91528 5.25 1.75 5.25C1.58472 5.25 1.44618 5.3059 1.33438 5.41771C1.22257 5.52951 1.16667 5.66806 1.16667 5.83333C1.16667 5.99861 1.22257 6.13715 1.33438 6.24896C1.44618 6.36076 1.58472 6.41667 1.75 6.41667V6.41667M8.75 2.33333C8.91528 2.33333 9.05382 2.27743 9.16562 2.16563C9.27743 2.05382 9.33333 1.91528 9.33333 1.75C9.33333 1.58472 9.27743 1.44618 9.16562 1.33438C9.05382 1.22257 8.91528 1.16667 8.75 1.16667C8.58472 1.16667 8.44618 1.22257 8.33438 1.33438C8.22257 1.44618 8.16667 1.58472 8.16667 1.75C8.16667 1.91528 8.22257 2.05382 8.33438 2.16563C8.44618 2.27743 8.58472 2.33333 8.75 2.33333V2.33333M8.75 9.91667V9.91667V9.91667V9.91667V9.91667V9.91667V9.91667V9.91667V9.91667V9.91667M1.75 5.83333V5.83333V5.83333V5.83333V5.83333V5.83333V5.83333V5.83333V5.83333V5.83333M8.75 1.75V1.75V1.75V1.75V1.75V1.75V1.75V1.75V1.75V1.75" fill="#191C1E"/>
</g>
</svg>
